<svg xmlns="http://www.w3.org/2000/svg">
    <symbol id="logo" viewBox="0 0 133.17 120.847">
        <g id="Group_37887" data-name="Group 37887" transform="translate(226.612 285.525)">
        <path id="Path_18115" data-name="Path 18115" d="M373.465,187.475l-61.811,33.149,61.811,33.149,61.811-33.149Z" transform="translate(-531.494 -473)" fill="#ec910e"/>
        <path id="Path_18117" data-name="Path 18117" d="M483.1,434.541v15.231l-45.411,24.354h-.053L392.22,449.772V434.541" transform="translate(-595.66 -669.773)" fill="none" stroke="#222221" stroke-linecap="round" stroke-linejoin="round" stroke-width="3"/>
        <path id="Path_18116" data-name="Path 18116" d="M291.932,436.315H278.388V397.326l6.771-10.26,6.772,10.26Z" transform="translate(-505 -631.962)" fill="#f8e637"/>
        <path id="Path_18118" data-name="Path 18118" d="M897.277,364.576c-.667-3.645,1.115-7.725,2.179-10.8.73-2.117,1.682-4.7,1.2-7.311a7.318,7.318,0,0,0-.324-1.189c-1.156-3.165-4.07-4.291-6.215-5.235a7.406,7.406,0,0,1,2.047,3.936c.671,3.645-1.111,7.724-2.175,10.8-.728,2.1-1.679,4.718-1.2,7.328a7.159,7.159,0,0,0,.322,1.173c1.164,3.189,4.038,4.28,6.216,5.239A7.425,7.425,0,0,1,897.277,364.576Zm-3.016-1.718a6.239,6.239,0,0,1-.266-.976c-.405-2.21.384-4.5,1.085-6.513l.068-.193c.14-.407.293-.833.452-1.269,1.074-2.972,2.409-6.671,1.77-10.153-.045-.236-.094-.471-.155-.7a5.812,5.812,0,0,1,1.974,2.644,6.353,6.353,0,0,1,.268.988c.4,2.2-.382,4.459-1.075,6.452l-.081.237c-.14.407-.293.833-.453,1.269-1.074,2.972-2.413,6.672-1.77,10.153.042.241.1.476.156.7A5.78,5.78,0,0,1,894.261,362.858Z" transform="translate(-994.231 -594.509)" fill="#f8e637"/>
        <text id="M_r.CENTER" data-name="M r.CENTER" transform="translate(-161.647 -168.679)" fill="#222221" font-size="16" font-family="BritannicBold, Britannic" letter-spacing="-0.106em"><tspan x="-45.515" y="0">M r</tspan><tspan y="0" font-size="21" letter-spacing="0.12em">.</tspan><tspan y="0" letter-spacing="0.12em">CENTER</tspan></text>
        <g id="Group_37886" data-name="Group 37886" transform="translate(-185.781 -269.262)">
        <path id="Path_6" data-name="Path 6" d="M522.371,276.11a10.425,10.425,0,0,0-1.556.064,14.435,14.435,0,0,0-26.733.364c-.168-.021-.336-.035-.5-.04a5.478,5.478,0,0,0-5.1,3.02,8.076,8.076,0,1,0-1.706,16.018l6.517.22q.25.013.495.022t.469.011l.63.021v-.021c4.026-.053,7.123-1.194,9.219-3.4a10.98,10.98,0,0,0,2.732-5.757,13.269,13.269,0,0,0,.177-2.663,2.375,2.375,0,1,0-.731-.014,11.293,11.293,0,0,1-2.711,7.938c-2.058,2.164-5.184,3.228-9.3,3.17l-7.471-.252a7.348,7.348,0,1,1,1.812-14.523l.291.063.12-.272a4.757,4.757,0,0,1,4.534-2.851,4.861,4.861,0,0,1,.7.075l.3.055.105-.287a13.707,13.707,0,0,1,25.588-.362l.107.266.284-.041a9.58,9.58,0,1,1,1.064,19.054l-11.263-.38a2.375,2.375,0,1,0-.025.728l11.263.38a10.307,10.307,0,1,0,.695-20.6Zm-17.325,5.448a1.647,1.647,0,1,1,1.591,1.7A1.649,1.649,0,0,1,505.046,281.558Zm2.978,15.979a1.647,1.647,0,1,1,1.7-1.591A1.649,1.649,0,0,1,508.024,297.537Z" transform="translate(-478.968 -267.367)" fill="#fff"/>
        </g>
  </g>
    </symbol>
    <symbol id="phone" viewBox="0 0 15.998 16.001">    
        <path  d="m-.025-1.906-.727 3.15A.971.971 0 0 1-1.7 2 14.313 14.313 0 0 1-16-12.3a.971.971 0 0 1 .757-.952l3.15-.727a.981.981 0 0 1 1.118.566l1.454 3.391A.978.978 0 0 1-9.8-8.879l-1.683 1.351A10.927 10.927 0 0 0-6.5-2.544l1.378-1.681a.972.972 0 0 1 1.14-.28l3.39 1.453a1.066 1.066 0 0 1 .567 1.146z" transform="translate(16 14)"/>
    </symbol>
    <symbol id="message" viewBox="0 0 16 12">    
        <path data-name="Path 12127" d="M-8-3a2.389 2.389 0 0 1-1.474-.513L-16-8.587V-1.5A1.5 1.5 0 0 0-14.5 0h13A1.5 1.5 0 0 0 0-1.5v-7.087l-6.525 5.078A2.407 2.407 0 0 1-8-3zm-7.491-6.459L-8.86-4.3a1.4 1.4 0 0 0 1.721 0l6.631-5.159A1.412 1.412 0 0 0 0-10.5 1.5 1.5 0 0 0-1.5-12h-13a1.5 1.5 0 0 0-1.5 1.5 1.319 1.319 0 0 0 .509 1.041z" transform="translate(16 12)" />
    </symbol>
    <symbol id="envelope" viewBox="0 0 490 490">
        <path xmlns="http://www.w3.org/2000/svg"
            d="M479.574,78.191H10.425c-0.071,0-0.141,0.007-0.211,0.008l0.001,0.003C4.556,78.315,0,82.925,0,88.617v312.766  c0,5.762,4.669,10.426,10.425,10.426h469.149c5.758,0,10.426-4.664,10.426-10.426V88.617C490,82.854,485.332,78.191,479.574,78.191z   M454.407,99.043l-138.581,138.58c-0.002,0.002-0.004,0.003-0.006,0.005L245,308.449l-70.82-70.821  c-0.004-0.004-0.008-0.007-0.013-0.012L35.594,99.043H454.407z M20.851,113.784l131.215,131.215L20.851,376.215V113.784z   M35.594,390.957l131.215-131.216l70.821,70.821c3.629,3.629,9.303,5.439,14.743,0l70.82-70.82l131.215,131.215H35.594z   M469.149,376.213L337.935,244.999l131.214-131.214V376.213z"
            style="&#10;" />
    </symbol>
    <symbol id="lock" viewBox="0 0 220.919 220.919">
        <path d="M154.251,220.919H66.667c-31.085,0-56.374-25.289-56.374-56.374V91.199c0-2.209,1.791-4,4-4h15.666v-7.464
            C29.959,35.77,65.729,0,109.694,0h1.53c43.966,0,79.734,35.77,79.734,79.735v7.464h15.667c2.209,0,4,1.791,4,4v73.346
            C210.626,195.63,185.336,220.919,154.251,220.919z M18.293,95.199v69.346c0,26.674,21.7,48.374,48.374,48.374h87.584
            c26.674,0,48.375-21.7,48.375-48.374V95.199H18.293z M37.959,87.199h145v-7.464C182.959,40.181,150.779,8,111.225,8h-1.53
            C70.14,8,37.959,40.181,37.959,79.735V87.199z M110.542,190.89h-0.165c-6.707,0-12.164-5.457-12.164-12.164v-16.979
            c-7.011-4.253-11.416-11.933-11.416-20.224c0-13.048,10.615-23.663,23.662-23.663s23.662,10.615,23.662,23.663
            c0,8.29-4.406,15.971-11.415,20.224v16.979C122.706,185.433,117.249,190.89,110.542,190.89z M110.459,125.859
            c-8.636,0-15.662,7.026-15.662,15.663c0,6.066,3.571,11.641,9.098,14.2c1.414,0.655,2.318,2.071,2.318,3.63v19.373
            c0,2.296,1.868,4.164,4.164,4.164h0.165c2.296,0,4.164-1.868,4.164-4.164v-19.373c0-1.559,0.904-2.975,2.318-3.63
            c5.526-2.56,9.097-8.134,9.097-14.2C126.121,132.886,119.095,125.859,110.459,125.859z"/>
    </symbol>
    <symbol id="user" viewBox="0 0 16.25 17">
        <g transform="translate(-0.375)">
            <path
                d="M8.125,0A8.134,8.134,0,0,0,0,8.125a.353.353,0,0,0,.707,0,7.418,7.418,0,0,1,14.837,0,.353.353,0,0,0,.707,0A8.134,8.134,0,0,0,8.125,0Z"
                transform="translate(0.375 8.522)" />
            <path
                d="M3.886,0A3.886,3.886,0,1,0,7.772,3.886,3.89,3.89,0,0,0,3.886,0Zm0,7.065A3.179,3.179,0,1,1,7.065,3.886,3.183,3.183,0,0,1,3.886,7.065Z"
                transform="translate(4.614)" />
        </g>
    </symbol>
      <symbol id="gallery" viewBox="0 0 61 53.464">
        <g id="" transform="translate(0 -3.768)">

            <path
                d="M6.222,0a6.222,6.222,0,1,0,6.222,6.222A6.222,6.222,0,0,0,6.222,0Zm0,9.482A3.259,3.259,0,1,1,9.482,6.222,3.259,3.259,0,0,1,6.222,9.482Z"
                transform="translate(24.669 22.638)" />
            <path
                d="M55.707,4.648,15.262.055a5.555,5.555,0,0,0-4.37,1.259A5.63,5.63,0,0,0,8.743,5.167L8,11.241h-2.3A5.953,5.953,0,0,0,0,17.389v30.3a5.63,5.63,0,0,0,5.479,5.776q.112,0,.225,0H46.373A6.08,6.08,0,0,0,52.6,47.686V46.5a7.407,7.407,0,0,0,2.815-1.185,6.149,6.149,0,0,0,2.148-4l3.408-30.075A6,6,0,0,0,55.707,4.648ZM49.632,47.686A3.119,3.119,0,0,1,46.373,50.5H5.706a2.667,2.667,0,0,1-2.744-2.587q0-.114,0-.228V42.2L14.447,33.76a3.556,3.556,0,0,1,4.593.222l8.074,7.111a6.964,6.964,0,0,0,4.371,1.63,6.741,6.741,0,0,0,3.556-.963l14.593-8.445V47.686Zm0-17.852L33.484,39.241a3.778,3.778,0,0,1-4.371-.37l-8.148-7.185a6.593,6.593,0,0,0-8.222-.3L2.965,38.5V17.389A2.99,2.99,0,0,1,5.706,14.2H46.373a3.408,3.408,0,0,1,3.259,3.185V29.834Zm8.373-18.993c0,.01,0,.02,0,.029L54.521,40.945a2.518,2.518,0,0,1-.963,2c-.3.3-.963.444-.963.593V17.389a6.37,6.37,0,0,0-6.222-6.148H10.965l.667-5.778a3.408,3.408,0,0,1,1.111-1.926,3.407,3.407,0,0,1,2.222-.593L55.336,7.611A2.963,2.963,0,0,1,58.006,10.841Z"
                transform="translate(0 3.768)" />
        </g>

    </symbol>
    <symbol id="arrow-1" viewBox="0 0 14 23">   
        <path d="M0.543015 6.79289C0.152491 7.18342 0.152491 7.81658 0.543015 8.20711L6.90698 14.5711C7.2975 14.9616 7.93067 14.9616 8.32119 14.5711C8.71171 14.1805 8.71171 13.5474 8.32119 13.1569L2.66434 7.5L8.32119 1.84315C8.71171 1.45262 8.71171 0.819457 8.32119 0.428932C7.93067 0.0384078 7.2975 0.0384078 6.90698 0.428932L0.543015 6.79289ZM18.2501 6.5L1.25012 6.5V8.5L18.2501 8.5V6.5Z" fill=""/>

    </symbol>
    <symbol id="icon" viewBox="0 0 37 36"> 
        <path d="M9.9031 27.7037L7.04052 25.7951C6.79781 25.6337 6.51562 25.5483 6.22413 25.5483C5.41297 25.5483 4.7522 26.2085 4.7522 27.0203V31.0441C4.7522 31.8559 5.41297 32.5161 6.22413 32.5161C6.51562 32.5161 6.79781 32.4307 7.04052 32.2687L9.9031 30.3601C10.3136 30.0867 10.5586 29.6285 10.5586 29.1356V28.9289C10.5586 28.4359 10.3136 27.9778 9.9031 27.7037ZM9.39736 29.1356C9.39736 29.2395 9.34568 29.3365 9.25917 29.394L6.39658 31.3025C6.20381 31.4309 5.91349 31.277 5.91349 31.0441V27.0203C5.91349 26.849 6.05284 26.7096 6.22413 26.7096C6.28568 26.7096 6.34549 26.7276 6.39658 26.7619L9.25917 28.6705C9.34568 28.7285 9.39736 28.8249 9.39736 28.9289V29.1356Z" fill=""/>
        <path d="M34.3651 0H16.9458C15.9854 0 15.2038 0.781548 15.2038 1.74194V4.64516H2.42964C1.78918 4.64516 1.26835 5.166 1.26835 5.80645V25.189C0.536152 26.2916 0.107056 27.6126 0.107056 29.0323C0.107056 32.8744 3.23267 36 7.0748 36C9.13144 36 10.9773 35.0988 12.2536 33.6774H27.2145C27.8683 35.0483 29.2642 36 30.8812 36C33.122 36 34.9458 34.1768 34.9458 31.9355V17.0936C34.9458 16.8428 34.89 16.5908 34.7861 16.3637L34.2008 15.0968H34.3651C35.3255 15.0968 36.1071 14.3152 36.1071 13.3548V1.74194C36.1071 0.781548 35.3255 0 34.3651 0ZM15.2038 5.80645V9.29032H2.42964V5.80645H15.2038ZM7.0748 34.8387C3.87312 34.8387 1.26835 32.2339 1.26835 29.0323C1.26835 25.8306 3.87312 23.2258 7.0748 23.2258C10.2765 23.2258 12.8812 25.8306 12.8812 29.0323C12.8812 32.2339 10.2765 34.8387 7.0748 34.8387ZM13.0996 32.5161C13.6959 31.4895 14.0425 30.3021 14.0425 29.0323C14.0425 25.1901 10.9169 22.0645 7.0748 22.0645C5.28931 22.0645 3.66409 22.745 2.42964 23.8535V10.4516H15.2038V13.3548C15.2038 14.3152 15.9854 15.0968 16.9458 15.0968H20.011L20.8564 17.6336C21.0463 18.1997 21.5747 18.5806 22.1716 18.5806C22.7685 18.5806 23.2969 18.1997 23.4867 17.633L24.3322 15.0968H27.5617L26.977 16.3643C26.8725 16.5908 26.8167 16.8434 26.8167 17.0936V31.9355C26.8167 32.1329 26.8359 32.3257 26.8632 32.5161H13.0996ZM29.3768 13.9355H32.3857L33.4576 16.2581H28.3043L29.3768 13.9355ZM29.9127 12.7742L30.8812 10.6757L31.8498 12.7742H29.9127ZM27.978 17.4194H30.3006V27.871H27.978V17.4194ZM27.978 29.0323H33.7845V30.1935H27.978V29.0323ZM31.4619 27.871V17.4194H33.7845V27.871H31.4619ZM30.8812 34.8387C29.2804 34.8387 27.978 33.5363 27.978 31.9355V31.3548H33.7845V31.9355C33.7845 33.5363 32.4821 34.8387 30.8812 34.8387ZM34.9458 13.3548C34.9458 13.6748 34.6856 13.9355 34.3651 13.9355H33.6649L30.8812 7.9049L28.0976 13.9355H23.4949L22.3852 17.2649C22.3231 17.4495 22.02 17.449 21.9579 17.2655L20.8483 13.9355H16.9458C16.6252 13.9355 16.3651 13.6748 16.3651 13.3548V1.74194C16.3651 1.422 16.6252 1.16129 16.9458 1.16129H34.3651C34.6856 1.16129 34.9458 1.422 34.9458 1.74194V13.3548Z" fill=""/>
        <path d="M28.8409 5.08522L26.3766 2.62096L25.6555 3.3427V2.32251H22.1716V3.34328L21.4505 2.62096L18.9862 5.08522L19.7085 5.80638H18.6877V9.29025H19.7085L18.9862 10.012L21.4505 12.4762L22.1716 11.7539V12.7741H25.6555V11.7533L26.3766 12.4757L28.8409 10.0114L28.1186 9.29025H29.1394V5.80638H28.1186L28.8409 5.08522ZM27.9781 8.13767C27.5652 8.18702 27.2081 8.45412 27.0461 8.84606C26.8841 9.23741 26.9474 9.6787 27.2041 10.0062L26.3708 10.8394C26.0439 10.5833 25.6032 10.5201 25.2107 10.6815C24.8194 10.8435 24.5523 11.2006 24.5023 11.6134H23.3242C23.2743 11.2006 23.0072 10.8435 22.6158 10.6815C22.2239 10.5195 21.7832 10.5828 21.4557 10.8394L20.6225 10.0062C20.8791 9.67928 20.943 9.23799 20.7804 8.84606C20.619 8.45412 20.2619 8.18702 19.849 8.13767V6.95954C20.2619 6.91019 20.619 6.64309 20.781 6.25115C20.943 5.8598 20.8797 5.41851 20.623 5.09103L21.4563 4.2578C21.7832 4.51444 22.2245 4.57832 22.6164 4.41574C23.0077 4.25374 23.2748 3.89664 23.3248 3.4838H24.5029C24.5528 3.89664 24.8199 4.25374 25.2113 4.41574C25.6026 4.57715 26.0434 4.51386 26.3714 4.2578L27.2046 5.09103C26.948 5.41793 26.8841 5.85922 27.0467 6.25115C27.2087 6.64309 27.5664 6.91019 27.9786 6.95954V8.13767H27.9781Z" fill=""/>
        <path d="M23.9135 4.64514C22.3126 4.64514 21.0103 5.94753 21.0103 7.54837C21.0103 9.14921 22.3126 10.4516 23.9135 10.4516C25.5143 10.4516 26.8167 9.14921 26.8167 7.54837C26.8167 5.94753 25.5143 4.64514 23.9135 4.64514ZM23.9135 9.2903C22.9531 9.2903 22.1715 8.50875 22.1715 7.54837C22.1715 6.58798 22.9531 5.80643 23.9135 5.80643C24.8739 5.80643 25.6554 6.58798 25.6554 7.54837C25.6554 8.50875 24.8739 9.2903 23.9135 9.2903Z" fill=""/>
        <path d="M6.49414 6.96777H7.65543V8.12906H6.49414V6.96777Z" fill=""/>
        <path d="M8.81665 6.96777H9.97794V8.12906H8.81665V6.96777Z" fill=""/>
        <path d="M16.3651 29.0322H17.5263V30.1935H16.3651V29.0322Z" fill=""/>
        <path d="M19.8491 29.0322H21.0104V30.1935H19.8491V29.0322Z" fill=""/>
        <path d="M23.3329 29.0322H24.4942V30.1935H23.3329V29.0322Z" fill=""/>
        <path d="M12.8813 11.6129H4.75223C4.11178 11.6129 3.59094 12.1338 3.59094 12.7742V19.7419C3.59094 20.3824 4.11178 20.9032 4.75223 20.9032H12.8813C13.5217 20.9032 14.0426 20.3824 14.0426 19.7419V12.7742C14.0426 12.1338 13.5217 11.6129 12.8813 11.6129ZM4.75223 12.7742H12.8813L12.8818 19.2281L10.7782 15.8621C10.4786 15.383 9.96236 15.0968 9.39739 15.0968C8.83243 15.0968 8.31623 15.383 8.01662 15.8621L5.59185 19.7419H4.75223V12.7742ZM11.8338 19.7419H6.96043L9.00081 16.4776C9.17327 16.2023 9.62094 16.2029 9.79339 16.4776L11.8338 19.7419Z" fill=""/>
        <path d="M16.3651 19.7421H18.6876V20.9034H16.3651V19.7421Z" fill=""/>
        <path d="M19.8491 19.7421H24.4942V20.9034H19.8491V19.7421Z" fill=""/>
        <path d="M16.3651 22.0646H24.4941V23.2259H16.3651V22.0646Z" fill=""/>
        <path d="M16.3651 24.3871H24.4941V25.5484H16.3651V24.3871Z" fill=""/>
        <path d="M16.3651 26.7096H24.4941V27.8709H16.3651V26.7096Z" fill=""/>  
    </symbol>
    
</svg>