<svg xmlns="http://www.w3.org/2000/svg" width="133.17" height="120.847" viewBox="0 0 133.17 120.847">
  <g id="Group_37887" data-name="Group 37887" transform="translate(226.612 285.525)">
    <path id="Path_18115" data-name="Path 18115" d="M373.465,187.475l-61.811,33.149,61.811,33.149,61.811-33.149Z" transform="translate(-531.494 -473)" fill="#ec910e"/>
    <path id="Path_18117" data-name="Path 18117" d="M483.1,434.541v15.231l-45.411,24.354h-.053L392.22,449.772V434.541" transform="translate(-595.66 -669.773)" fill="none" stroke="#222221" stroke-linecap="round" stroke-linejoin="round" stroke-width="3"/>
    <path id="Path_18116" data-name="Path 18116" d="M291.932,436.315H278.388V397.326l6.771-10.26,6.772,10.26Z" transform="translate(-505 -631.962)" fill="#f8e637"/>
    <path id="Path_18118" data-name="Path 18118" d="M897.277,364.576c-.667-3.645,1.115-7.725,2.179-10.8.73-2.117,1.682-4.7,1.2-7.311a7.318,7.318,0,0,0-.324-1.189c-1.156-3.165-4.07-4.291-6.215-5.235a7.406,7.406,0,0,1,2.047,3.936c.671,3.645-1.111,7.724-2.175,10.8-.728,2.1-1.679,4.718-1.2,7.328a7.159,7.159,0,0,0,.322,1.173c1.164,3.189,4.038,4.28,6.216,5.239A7.425,7.425,0,0,1,897.277,364.576Zm-3.016-1.718a6.239,6.239,0,0,1-.266-.976c-.405-2.21.384-4.5,1.085-6.513l.068-.193c.14-.407.293-.833.452-1.269,1.074-2.972,2.409-6.671,1.77-10.153-.045-.236-.094-.471-.155-.7a5.812,5.812,0,0,1,1.974,2.644,6.353,6.353,0,0,1,.268.988c.4,2.2-.382,4.459-1.075,6.452l-.081.237c-.14.407-.293.833-.453,1.269-1.074,2.972-2.413,6.672-1.77,10.153.042.241.1.476.156.7A5.78,5.78,0,0,1,894.261,362.858Z" transform="translate(-994.231 -594.509)" fill="#f8e637"/>
    <text id="M_r.CENTER" data-name="M r.CENTER" transform="translate(-161.647 -168.679)" fill="#222221" font-size="16" font-family="BritannicBold, Britannic" letter-spacing="-0.106em"><tspan x="-45.515" y="0">M r</tspan><tspan y="0" font-size="21" letter-spacing="0.12em">.</tspan><tspan y="0" letter-spacing="0.12em">CENTER</tspan></text>
    <g id="Group_37886" data-name="Group 37886" transform="translate(-185.781 -269.262)">
      <path id="Path_6" data-name="Path 6" d="M522.371,276.11a10.425,10.425,0,0,0-1.556.064,14.435,14.435,0,0,0-26.733.364c-.168-.021-.336-.035-.5-.04a5.478,5.478,0,0,0-5.1,3.02,8.076,8.076,0,1,0-1.706,16.018l6.517.22q.25.013.495.022t.469.011l.63.021v-.021c4.026-.053,7.123-1.194,9.219-3.4a10.98,10.98,0,0,0,2.732-5.757,13.269,13.269,0,0,0,.177-2.663,2.375,2.375,0,1,0-.731-.014,11.293,11.293,0,0,1-2.711,7.938c-2.058,2.164-5.184,3.228-9.3,3.17l-7.471-.252a7.348,7.348,0,1,1,1.812-14.523l.291.063.12-.272a4.757,4.757,0,0,1,4.534-2.851,4.861,4.861,0,0,1,.7.075l.3.055.105-.287a13.707,13.707,0,0,1,25.588-.362l.107.266.284-.041a9.58,9.58,0,1,1,1.064,19.054l-11.263-.38a2.375,2.375,0,1,0-.025.728l11.263.38a10.307,10.307,0,1,0,.695-20.6Zm-17.325,5.448a1.647,1.647,0,1,1,1.591,1.7A1.649,1.649,0,0,1,505.046,281.558Zm2.978,15.979a1.647,1.647,0,1,1,1.7-1.591A1.649,1.649,0,0,1,508.024,297.537Z" transform="translate(-478.968 -267.367)" fill="#fff"/>
    </g>
  </g>
</svg>
